<svg width="33" height="33" viewBox="0 0 33 33" fill="none" xmlns="http://www.w3.org/2000/svg">
<g clip-path="url(#clip0)">
<path d="M32.4291 5.14234C31.9584 4.57148 31.2607 4.24431 30.5151 4.24431H11.3676C10.9754 4.24431 10.6572 4.56258 10.6572 4.95478C10.6572 5.34697 10.9754 5.66524 11.3676 5.66524H30.5147C30.839 5.66524 31.1296 5.80059 31.3325 6.04642C31.5385 6.2965 31.6209 6.62617 31.5588 6.94696L28.7193 21.1448C28.6092 21.6521 28.179 22.0063 27.6731 22.0063H11.8802L5.35983 2.37537C5.0074 1.36861 4.05324 0.692242 2.9605 0.692242C2.96018 0.692242 2.95979 0.692242 2.95941 0.692242C2.03257 0.724211 1.09266 0.723889 0.862429 0.708227C0.633299 0.658469 0.385671 0.722406 0.208103 0.900039C-0.0693675 1.17751 -0.0693675 1.6272 0.208103 1.90467C0.428016 2.12458 0.502266 2.19883 2.98396 2.11285C3.44932 2.11285 3.86529 2.40701 4.01489 2.83395L10.6934 22.9408C10.79 23.2311 11.0614 23.4271 11.3676 23.4271H27.6731C28.8532 23.4271 29.8542 22.6126 30.1104 21.435L32.9533 7.22146C33.0969 6.47838 32.9061 5.72067 32.4291 5.14234Z" fill="white"/>
<path d="M27.3538 27.3351H14.4231C13.9858 27.3351 13.5747 27.0338 13.4266 26.6111L12.0412 22.4903C11.9162 22.1183 11.5123 21.9176 11.1414 22.0434C10.7694 22.1681 10.5694 22.5712 10.6945 22.9432L12.0827 27.0721C12.4355 28.0792 13.3758 28.7556 14.423 28.7556H27.3537C27.7459 28.7556 28.0642 28.4376 28.0642 28.0454C28.0642 27.6532 27.746 27.3351 27.3538 27.3351Z" fill="white"/>
<path d="M14.9203 27.3347C13.549 27.3347 12.4336 28.4505 12.4336 29.8214C12.4336 31.1922 13.549 32.308 14.9203 32.308C16.2915 32.308 17.4069 31.1922 17.4069 29.8214C17.4069 28.4505 16.2915 27.3347 14.9203 27.3347ZM14.9203 30.8871C14.3327 30.8871 13.8545 30.4089 13.8545 29.8214C13.8545 29.2338 14.3327 28.7556 14.9203 28.7556C15.5078 28.7556 15.986 29.2338 15.986 29.8214C15.986 30.409 15.5078 30.8871 14.9203 30.8871Z" fill="white"/>
<path d="M27.3538 27.3347C25.983 27.3347 24.8672 28.4505 24.8672 29.8214C24.8672 31.1922 25.983 32.308 27.3538 32.308C28.7247 32.308 29.8405 31.1922 29.8405 29.8214C29.8405 28.4505 28.7247 27.3347 27.3538 27.3347ZM27.3538 30.8871C26.7663 30.8871 26.2881 30.4089 26.2881 29.8214C26.2881 29.2338 26.7663 28.7556 27.3538 28.7556C27.9414 28.7556 28.4196 29.2338 28.4196 29.8214C28.4196 30.409 27.9414 30.8871 27.3538 30.8871Z" fill="white"/>
</g>
<defs>
<clipPath id="clip0">
<rect width="33" height="33" fill="white"/>
</clipPath>
</defs>
</svg>
