<svg width="77" height="90" viewBox="0 0 77 90" fill="none" xmlns="http://www.w3.org/2000/svg">
<path d="M38.4673 2.17968L74.1964 12.1605V62.0491H2V27.5546L38.4673 2.17968Z" stroke="#201416" stroke-width="4"/>
<path d="M4.84508 79.5652L10.4903 84.8112H7.06759L2.53366 80.2901V84.8112H0V70.6948H2.53366V78.8976L6.97869 74.3002H10.4903L4.84508 79.5652Z" fill="#201416"/>
<path d="M11.4617 79.508C11.4617 78.4525 11.7136 77.5177 12.2174 76.7038C12.736 75.8899 13.4324 75.2604 14.3066 74.8153C15.1956 74.3575 16.1735 74.1285 17.2403 74.1285C18.2034 74.1285 19.0405 74.2939 19.7517 74.6245C20.4777 74.9425 21.0556 75.3431 21.4853 75.8263V74.3002H24.0412V84.8112H21.4853V83.2469C21.0556 83.7429 20.4703 84.1562 19.7295 84.4869C18.9886 84.8175 18.1441 84.9829 17.1958 84.9829C16.1438 84.9829 15.1807 84.7539 14.3066 84.2961C13.4324 83.8256 12.736 83.177 12.2174 82.3504C11.7136 81.511 11.4617 80.5636 11.4617 79.508ZM21.4853 79.5462C21.4853 78.8213 21.3075 78.1918 20.9519 77.6576C20.6111 77.1235 20.1592 76.7165 19.5961 76.4368C19.0331 76.157 18.4256 76.0171 17.7737 76.0171C17.1217 76.0171 16.5142 76.157 15.9512 76.4368C15.3882 76.7038 14.9289 77.1044 14.5733 77.6386C14.2325 78.16 14.0621 78.7831 14.0621 79.508C14.0621 80.2329 14.2325 80.8688 14.5733 81.4156C14.9289 81.9625 15.3882 82.3821 15.9512 82.6746C16.5291 82.9544 17.1365 83.0943 17.7737 83.0943C18.4256 83.0943 19.0331 82.9544 19.5961 82.6746C20.1592 82.3949 20.6111 81.9879 20.9519 81.4538C21.3075 80.9069 21.4853 80.2711 21.4853 79.5462Z" fill="#201416"/>
<path d="M30.325 76.0743V81.8925C30.325 82.2868 30.4287 82.5729 30.6361 82.751C30.8584 82.9163 31.2288 82.9989 31.7474 82.9989H33.3031V84.8112H31.3029C30.162 84.8112 29.2878 84.5823 28.6803 84.1244C28.0728 83.6666 27.7691 82.9226 27.7691 81.8925V76.0743H26.3244V74.3002H27.7691V71.6868H30.325V74.3002H33.3031V76.0743H30.325Z" fill="#201416"/>
<path d="M38.172 75.8263C38.5424 75.2922 39.0314 74.8789 39.6388 74.5864C40.2611 74.2812 40.9946 74.1285 41.8391 74.1285V76.3795H41.1946C40.2019 76.3795 39.4462 76.5957 38.9276 77.0281C38.4239 77.4605 38.172 78.2108 38.172 79.2791V84.8112H35.6383V74.3002H38.172V75.8263Z" fill="#201416"/>
<path d="M45.4571 72.9077C44.9978 72.9077 44.6126 72.7741 44.3014 72.5071C43.9903 72.24 43.8347 71.9094 43.8347 71.5151C43.8347 71.1209 43.9903 70.7902 44.3014 70.5232C44.6126 70.2561 44.9978 70.1226 45.4571 70.1226C45.9016 70.1226 46.2795 70.2561 46.5906 70.5232C46.9018 70.7902 47.0573 71.1209 47.0573 71.5151C47.0573 71.9094 46.9018 72.24 46.5906 72.5071C46.2795 72.7741 45.9016 72.9077 45.4571 72.9077ZM46.7017 74.3002V84.8112H44.1681V74.3002H46.7017Z" fill="#201416"/>
<path d="M56.2068 74.1285C57.1699 74.1285 58.0293 74.3002 58.7849 74.6436C59.5554 74.987 60.1555 75.4957 60.5851 76.1697C61.0148 76.8437 61.2297 77.6576 61.2297 78.6114V84.8112H58.7182V78.9357C58.7182 77.9946 58.4441 77.2761 57.8959 76.7801C57.3477 76.2714 56.5994 76.0171 55.6512 76.0171C54.7029 76.0171 53.9472 76.2714 53.3842 76.7801C52.836 77.2761 52.5619 77.9946 52.5619 78.9357V84.8112H50.0282V74.3002H52.5619V75.502C52.9767 75.0696 53.5027 74.7326 54.1399 74.491C54.7918 74.2494 55.4808 74.1285 56.2068 74.1285Z" fill="#201416"/>
<path d="M69.3955 74.1285C70.3438 74.1285 71.1809 74.2939 71.9069 74.6245C72.6478 74.9425 73.2256 75.3431 73.6405 75.8263V74.3002H76.1964V84.9829C76.1964 85.9494 75.9593 86.8078 75.4852 87.5581C75.011 88.3212 74.3221 88.9189 73.4182 89.3513C72.5292 89.7837 71.4624 89.9999 70.2178 89.9999C68.5583 89.9999 67.1804 89.6629 66.084 88.9888C64.9875 88.3275 64.3652 87.4246 64.217 86.28H66.7285C66.9211 86.8269 67.3286 87.2656 67.9509 87.5963C68.588 87.9397 69.3436 88.1113 70.2178 88.1113C71.2402 88.1113 72.0625 87.8443 72.6848 87.3101C73.3219 86.776 73.6405 86.0002 73.6405 84.9829V83.2279C73.2108 83.7238 72.6255 84.1435 71.8847 84.4869C71.1587 84.8175 70.3289 84.9829 69.3955 84.9829C68.3287 84.9829 67.3508 84.7539 66.4618 84.2961C65.5876 83.8256 64.8912 83.177 64.3726 82.3504C63.8688 81.511 63.617 80.5636 63.617 79.508C63.617 78.4525 63.8688 77.5177 64.3726 76.7038C64.8912 75.8899 65.5876 75.2604 66.4618 74.8153C67.3508 74.3575 68.3287 74.1285 69.3955 74.1285ZM73.6405 79.5462C73.6405 78.8213 73.4627 78.1918 73.1071 77.6576C72.7663 77.1235 72.3144 76.7165 71.7514 76.4368C71.1883 76.157 70.5808 76.0171 69.9289 76.0171C69.277 76.0171 68.6695 76.157 68.1064 76.4368C67.5434 76.7038 67.0841 77.1044 66.7285 77.6386C66.3877 78.16 66.2173 78.7831 66.2173 79.508C66.2173 80.2329 66.3877 80.8688 66.7285 81.4156C67.0841 81.9625 67.5434 82.3821 68.1064 82.6746C68.6843 82.9544 69.2918 83.0943 69.9289 83.0943C70.5808 83.0943 71.1883 82.9544 71.7514 82.6746C72.3144 82.3949 72.7663 81.9879 73.1071 81.4538C73.4627 80.9069 73.6405 80.2711 73.6405 79.5462Z" fill="#201416"/>
<path d="M51.2764 4.41724C44.6646 8.38101 35.408 19.6902 51.2764 33.2166C67.1449 46.7429 65.6021 58.6714 62.8472 62.9449" stroke="#201416" stroke-width="2"/>
<path d="M74.2534 11.595C46.9947 23.4661 80.9518 27.3312 74.2534 40.3943" stroke="#201416" stroke-width="2"/>
<path d="M29.1856 7.11397C22.7189 11.1948 13.8702 22.4856 30.2083 35.0029C46.5465 47.5202 45.4283 59.1282 42.827 63.3675" stroke="#201416" stroke-width="2"/>
<path d="M13.1484 19.4187C9.36848 22.9159 4.55613 32.2484 15.5457 41.6008C26.5353 50.9532 26.5694 60.2445 25.2127 63.7211" stroke="#201416" stroke-width="2"/>
<path d="M57.9355 62.1274C55.4876 56.9895 50.2931 49.807 49.0988 62.1807" stroke="#201416" stroke-width="2"/>
</svg>
