<svg width="76" height="90" viewBox="0 0 76 90" fill="none" xmlns="http://www.w3.org/2000/svg">
<path d="M38.271 2.17968L74.0001 12.1605V62.0491H1.80371V27.5546L38.271 2.17968Z" stroke="white" stroke-width="4"/>
<path d="M4.64879 79.5652L10.294 84.8112H6.8713L2.33737 80.2901V84.8112H-0.196289V70.6948H2.33737V78.8976L6.7824 74.3002H10.294L4.64879 79.5652Z" fill="white"/>
<path d="M11.2654 79.508C11.2654 78.4525 11.5173 77.5177 12.0211 76.7038C12.5397 75.8899 13.2361 75.2604 14.1103 74.8153C14.9993 74.3575 15.9772 74.1285 17.044 74.1285C18.0071 74.1285 18.8442 74.2939 19.5554 74.6245C20.2814 74.9425 20.8593 75.3431 21.289 75.8263V74.3002H23.8449V84.8112H21.289V83.2469C20.8593 83.7429 20.274 84.1562 19.5332 84.4869C18.7924 84.8175 17.9478 84.9829 16.9995 84.9829C15.9475 84.9829 14.9844 84.7539 14.1103 84.2961C13.2361 83.8256 12.5397 83.177 12.0211 82.3504C11.5173 81.511 11.2654 80.5636 11.2654 79.508ZM21.289 79.5462C21.289 78.8213 21.1112 78.1918 20.7556 77.6576C20.4148 77.1235 19.9629 76.7165 19.3998 76.4368C18.8368 76.157 18.2293 76.0171 17.5774 76.0171C16.9254 76.0171 16.318 76.157 15.7549 76.4368C15.1919 76.7038 14.7326 77.1044 14.377 77.6386C14.0362 78.16 13.8658 78.7831 13.8658 79.508C13.8658 80.2329 14.0362 80.8688 14.377 81.4156C14.7326 81.9625 15.1919 82.3821 15.7549 82.6746C16.3328 82.9544 16.9403 83.0943 17.5774 83.0943C18.2293 83.0943 18.8368 82.9544 19.3998 82.6746C19.9629 82.3949 20.4148 81.9879 20.7556 81.4538C21.1112 80.9069 21.289 80.2711 21.289 79.5462Z" fill="white"/>
<path d="M30.1287 76.0743V81.8925C30.1287 82.2868 30.2324 82.5729 30.4398 82.751C30.6621 82.9163 31.0325 82.9989 31.5511 82.9989H33.1068V84.8112H31.1066C29.9657 84.8112 29.0915 84.5823 28.484 84.1244C27.8765 83.6666 27.5728 82.9226 27.5728 81.8925V76.0743H26.1281V74.3002H27.5728V71.6868H30.1287V74.3002H33.1068V76.0743H30.1287Z" fill="white"/>
<path d="M37.9757 75.8263C38.3461 75.2922 38.8351 74.8789 39.4426 74.5864C40.0649 74.2812 40.7983 74.1285 41.6428 74.1285V76.3795H40.9983C40.0056 76.3795 39.2499 76.5957 38.7313 77.0281C38.2276 77.4605 37.9757 78.2108 37.9757 79.2791V84.8112H35.442V74.3002H37.9757V75.8263Z" fill="white"/>
<path d="M45.2608 72.9077C44.8015 72.9077 44.4163 72.7741 44.1051 72.5071C43.794 72.24 43.6384 71.9094 43.6384 71.5151C43.6384 71.1209 43.794 70.7902 44.1051 70.5232C44.4163 70.2561 44.8015 70.1226 45.2608 70.1226C45.7053 70.1226 46.0832 70.2561 46.3943 70.5232C46.7055 70.7902 46.8611 71.1209 46.8611 71.5151C46.8611 71.9094 46.7055 72.24 46.3943 72.5071C46.0832 72.7741 45.7053 72.9077 45.2608 72.9077ZM46.5055 74.3002V84.8112H43.9718V74.3002H46.5055Z" fill="white"/>
<path d="M56.0105 74.1285C56.9736 74.1285 57.833 74.3002 58.5886 74.6436C59.3591 74.987 59.9592 75.4957 60.3889 76.1697C60.8185 76.8437 61.0334 77.6576 61.0334 78.6114V84.8112H58.5219V78.9357C58.5219 77.9946 58.2478 77.2761 57.6996 76.7801C57.1514 76.2714 56.4032 76.0171 55.4549 76.0171C54.5066 76.0171 53.751 76.2714 53.1879 76.7801C52.6397 77.2761 52.3656 77.9946 52.3656 78.9357V84.8112H49.8319V74.3002H52.3656V75.502C52.7805 75.0696 53.3065 74.7326 53.9436 74.491C54.5955 74.2494 55.2845 74.1285 56.0105 74.1285Z" fill="white"/>
<path d="M69.1992 74.1285C70.1475 74.1285 70.9846 74.2939 71.7106 74.6245C72.4515 74.9425 73.0293 75.3431 73.4442 75.8263V74.3002H76.0001V84.9829C76.0001 85.9494 75.763 86.8078 75.2889 87.5581C74.8148 88.3212 74.1258 88.9189 73.222 89.3513C72.3329 89.7837 71.2661 89.9999 70.0215 89.9999C68.3621 89.9999 66.9841 89.6629 65.8877 88.9888C64.7912 88.3275 64.1689 87.4246 64.0208 86.28H66.5322C66.7248 86.8269 67.1323 87.2656 67.7546 87.5963C68.3917 87.9397 69.1473 88.1113 70.0215 88.1113C71.0439 88.1113 71.8662 87.8443 72.4885 87.3101C73.1256 86.776 73.4442 86.0002 73.4442 84.9829V83.2279C73.0145 83.7238 72.4293 84.1435 71.6884 84.4869C70.9624 84.8175 70.1327 84.9829 69.1992 84.9829C68.1324 84.9829 67.1545 84.7539 66.2655 84.2961C65.3913 83.8256 64.6949 83.177 64.1763 82.3504C63.6726 81.511 63.4207 80.5636 63.4207 79.508C63.4207 78.4525 63.6726 77.5177 64.1763 76.7038C64.6949 75.8899 65.3913 75.2604 66.2655 74.8153C67.1545 74.3575 68.1324 74.1285 69.1992 74.1285ZM73.4442 79.5462C73.4442 78.8213 73.2664 78.1918 72.9108 77.6576C72.57 77.1235 72.1181 76.7165 71.5551 76.4368C70.992 76.157 70.3845 76.0171 69.7326 76.0171C69.0807 76.0171 68.4732 76.157 67.9101 76.4368C67.3471 76.7038 66.8878 77.1044 66.5322 77.6386C66.1914 78.16 66.021 78.7831 66.021 79.508C66.021 80.2329 66.1914 80.8688 66.5322 81.4156C66.8878 81.9625 67.3471 82.3821 67.9101 82.6746C68.488 82.9544 69.0955 83.0943 69.7326 83.0943C70.3845 83.0943 70.992 82.9544 71.5551 82.6746C72.1181 82.3949 72.57 81.9879 72.9108 81.4538C73.2664 80.9069 73.4442 80.2711 73.4442 79.5462Z" fill="white"/>
<path d="M51.0802 4.41724C44.4683 8.38101 35.2117 19.6902 51.0802 33.2166C66.9486 46.7429 65.4059 58.6714 62.6509 62.9449" stroke="white" stroke-width="2"/>
<path d="M74.0571 11.595C46.7984 23.4661 80.7555 27.3312 74.0571 40.3943" stroke="white" stroke-width="2"/>
<path d="M28.9893 7.11397C22.5227 11.1948 13.6739 22.4856 30.012 35.0029C46.3502 47.5202 45.232 59.1282 42.6307 63.3675" stroke="white" stroke-width="2"/>
<path d="M12.9521 19.4187C9.17219 22.9159 4.35984 32.2484 15.3494 41.6008C26.3391 50.9532 26.3731 60.2445 25.0164 63.7211" stroke="white" stroke-width="2"/>
<path d="M57.7392 62.1274C55.2913 56.9895 50.0968 49.807 48.9025 62.1807" stroke="white" stroke-width="2"/>
</svg>
