<svg width="71" height="71" viewBox="0 0 71 71" fill="none" xmlns="http://www.w3.org/2000/svg">
<g clip-path="url(#clip0)">
<path d="M49.9222 21.8186C50.1011 21.8186 50.2815 21.7839 50.4533 21.7126C50.9711 21.4978 51.3086 20.9924 51.3086 20.4317V8.32001H52.8062C53.3192 8.32001 53.8319 8.3049 54.3438 8.27772L57.5582 20.2741C57.7032 20.8156 58.1601 21.2163 58.7159 21.2898C58.7769 21.2979 58.8377 21.3019 58.8981 21.3019C59.3882 21.3019 59.8479 21.0417 60.0979 20.6098L63.3301 15.0256L68.9215 18.2456C69.4072 18.5253 70.0138 18.4852 70.4582 18.1435C70.9028 17.802 71.0981 17.2265 70.9529 16.6848L67.6426 4.33126C68.6077 3.77491 69.5423 3.16476 70.4388 2.50066C71.0542 2.04471 71.1836 1.17634 70.7277 0.56092C70.2717 -0.054505 69.4034 -0.183886 68.7879 0.272067C64.1961 3.6734 58.5204 5.54658 52.8062 5.54658H18.194C12.4798 5.54658 6.80408 3.6734 2.21225 0.272067C1.59696 -0.183608 0.728324 -0.0543663 0.27251 0.561058C-0.183303 1.17648 -0.0539225 2.04484 0.561363 2.5008C1.45788 3.1649 2.39252 3.77505 3.35754 4.3314L0.0473077 16.685C-0.0977428 17.2265 0.0973681 17.8021 0.541949 18.1436C0.98653 18.4851 1.59294 18.5254 2.07871 18.2457L7.67009 15.0258L10.9022 20.6099C11.1523 21.042 11.612 21.302 12.102 21.302C12.1624 21.302 12.2234 21.298 12.2841 21.29C12.8399 21.2165 13.2967 20.8157 13.4419 20.2742L16.6563 8.27786C17.1681 8.30504 17.6808 8.32015 18.1939 8.32015H19.6914V20.4319C19.6914 20.9924 20.0289 21.498 20.5467 21.7128C21.0647 21.9274 21.6607 21.8094 22.0575 21.4135L26.625 16.8561L31.1923 21.4135C31.4575 21.6781 31.8117 21.8186 32.1721 21.8186C32.351 21.8186 32.5314 21.7839 32.7032 21.7126C33.221 21.4978 33.5585 20.9924 33.5585 20.4317V8.32001H37.4414V20.4317C37.4414 20.9922 37.7789 21.4978 38.2967 21.7126C38.8148 21.9273 39.4108 21.8093 39.8076 21.4134L44.3749 16.8559L48.9422 21.4134C49.2076 21.678 49.5618 21.8186 49.9222 21.8186V21.8186ZM67.4087 14.1742L63.5149 11.9319C62.8524 11.5502 62.0058 11.7771 61.6228 12.4388L59.372 16.3275L57.1392 7.99469C59.893 7.58256 62.586 6.78312 65.1192 5.62923L67.4087 14.1742ZM11.6282 16.3275L9.37741 12.4388C8.9944 11.777 8.14767 11.5501 7.48524 11.9319L3.59148 14.1742L5.88108 5.62937C8.41434 6.78325 11.1073 7.5827 13.8611 7.99483L11.6282 16.3275ZM30.7853 17.0892L27.6045 13.9156C27.0632 13.3753 26.1869 13.3753 25.6455 13.9156L22.465 17.0892V8.32001H30.7853V17.0892ZM45.3545 13.9154C44.8131 13.3751 43.9369 13.3751 43.3955 13.9154L40.2149 17.0891V8.32001H48.5352V17.0891L45.3545 13.9154Z" fill="#FFA7A7"/>
<path d="M68.7873 38.6373C64.1956 42.0386 58.5198 43.9118 52.8055 43.9118H47.792C47.0261 43.9118 46.4053 44.5327 46.4053 45.2985C46.4053 46.0644 47.0261 46.6853 47.792 46.6853H51.5937L53.7717 59.0377C53.869 59.5899 54.2892 60.029 54.8364 60.1506C54.9366 60.1729 55.0375 60.1837 55.1374 60.1837C55.583 60.1837 56.0093 59.9684 56.2723 59.5935L59.979 54.3124L65.2684 58.0073C65.7278 58.3283 66.3356 58.3411 66.8082 58.0396C67.2809 57.7381 67.5256 57.1816 67.4282 56.6297L65.1942 43.9599C67.0408 43.1125 68.802 42.0778 70.4381 40.8659C71.0535 40.4099 71.1829 39.5416 70.7269 38.9262C70.2711 38.3107 69.4028 38.1813 68.7873 38.6373V38.6373ZM64.1166 53.8194L60.4332 51.2462C59.8065 50.8083 58.9433 50.9604 58.504 51.5863L55.9227 55.2641L54.4021 46.6398C57.1837 46.4865 59.9378 45.9357 62.565 45.0194L64.1166 53.8194Z" fill="#FFA7A7"/>
<path d="M41.5523 50.1522C40.7864 50.1522 40.1656 50.7731 40.1656 51.539V55.4545L36.985 52.2809C36.4436 51.7406 35.5674 51.7406 35.026 52.2809L31.8453 55.4545V46.6855H35.3122C36.0781 46.6855 36.6989 46.0646 36.6989 45.2987C36.6989 44.5328 36.0781 43.912 35.3122 43.912H18.194C12.4797 43.912 6.80404 42.0388 2.2122 38.6375C1.59677 38.1817 0.72827 38.3109 0.272455 38.9263C-0.183359 39.5418 -0.0539782 40.4101 0.561309 40.8661C2.47235 42.2816 4.55381 43.457 6.7433 44.3724L4.58196 56.6299C4.48461 57.1819 4.72923 57.7383 5.20196 58.0398C5.67456 58.3411 6.28222 58.3283 6.74178 58.0075L12.0311 54.3125L15.7378 59.5937C16.0009 59.9686 16.4272 60.1839 16.8727 60.1839C16.9726 60.1839 17.0735 60.1731 17.1738 60.1508C17.721 60.0292 18.1412 59.59 18.2385 59.0379L20.4165 46.6855H29.0717V58.7972C29.0717 59.3578 29.4092 59.8633 29.927 60.0781C30.4448 60.2928 31.041 60.1748 31.4379 59.7789L36.0053 55.2214L40.5727 59.7789C40.838 60.0434 41.1922 60.1839 41.5526 60.1839C41.7313 60.1839 41.9119 60.1492 42.0837 60.078C42.6015 59.8632 42.939 59.3577 42.939 58.7971V51.5388C42.939 50.7731 42.3182 50.1522 41.5523 50.1522V50.1522ZM16.0877 55.2644L13.5065 51.5867C13.0672 50.9607 12.2041 50.8086 11.5773 51.2465L7.89386 53.8197L9.38985 45.3352C12.0453 46.1628 14.8157 46.6224 17.6014 46.6793L16.0877 55.2644Z" fill="#FFA7A7"/>
<path d="M20.2002 28.8438C20.2002 28.0779 19.5794 27.457 18.8135 27.457C17.7429 27.457 16.8721 26.5862 16.8721 25.5156C16.8721 24.7497 16.2512 24.1289 15.4854 24.1289C14.7195 24.1289 14.0986 24.7497 14.0986 25.5156C14.0986 28.1154 16.2137 30.2305 18.8135 30.2305C19.5794 30.2305 20.2002 29.6096 20.2002 28.8438Z" fill="#FFA7A7"/>
<path d="M54.6764 28.3227C54.5998 28.8363 54.3281 29.2888 53.9118 29.5971C53.4954 29.9052 52.9831 30.0328 52.4696 29.9561C51.7132 29.8425 51.0065 30.3653 50.8933 31.1229C50.7802 31.8803 51.3026 32.586 52.0601 32.6992C52.2964 32.7345 52.5327 32.7519 52.7672 32.7519C53.7697 32.7519 54.7419 32.4332 55.5619 31.8264C56.5737 31.0774 57.2334 29.9786 57.4195 28.7323C57.5327 27.9749 57.0103 27.2692 56.2527 27.156C55.4963 27.0429 54.7896 27.5653 54.6764 28.3227V28.3227Z" fill="#FFA7A7"/>
<path d="M56.2527 62.5677C55.4963 62.4543 54.7896 62.9769 54.6764 63.7345C54.5998 64.2481 54.3282 64.7006 53.9118 65.0088C53.4954 65.3169 52.9831 65.4445 52.4696 65.3678C51.7129 65.2543 51.0065 65.777 50.8933 66.5346C50.7802 67.292 51.3026 67.9977 52.0601 68.1109C52.2952 68.1459 52.5284 68.163 52.7593 68.163C55.0536 68.163 57.0706 66.4802 57.4194 64.144C57.5327 63.3866 57.0103 62.6809 56.2527 62.5677V62.5677Z" fill="#FFA7A7"/>
<path d="M18.5307 68.2048C18.0168 68.2813 17.5048 68.1539 17.0885 67.8458C16.6721 67.5376 16.4006 67.085 16.3239 66.5715C16.2107 65.8141 15.5045 65.2909 14.7476 65.4047C13.9902 65.5177 13.4678 66.2236 13.5808 66.981C13.9296 69.3173 15.9464 70.9998 18.241 70.9998C18.4718 70.9998 18.7054 70.9829 18.9402 70.9477C19.6976 70.8347 20.2201 70.1288 20.107 69.3714C19.9938 68.614 19.2878 68.0913 18.5307 68.2048Z" fill="#FFA7A7"/>
<path d="M34.537 39.9134C34.8078 40.1841 35.1627 40.3195 35.5175 40.3195C35.8724 40.3195 36.2274 40.1841 36.4981 39.9134C37.389 39.0223 37.8798 37.8383 37.8798 36.5794C37.8798 35.3206 37.389 34.1366 36.4981 33.2455C35.9566 32.704 35.0785 32.704 34.537 33.2456C33.9955 33.7871 33.9955 34.6652 34.5371 35.2067C34.9043 35.5739 35.1065 36.0613 35.1065 36.5794C35.1065 37.0975 34.9043 37.5849 34.5371 37.9521C33.9955 38.4936 33.9955 39.3717 34.537 39.9134V39.9134Z" fill="#FFA7A7"/>
<path d="M41.5514 43.9119C41.1866 43.9119 40.8289 44.0602 40.5709 44.3182C40.313 44.5761 40.166 44.9325 40.166 45.2986C40.166 45.6633 40.313 46.0211 40.5709 46.279C40.8303 46.5369 41.1866 46.6853 41.5514 46.6853C41.9174 46.6853 42.2738 46.5369 42.5318 46.279C42.7911 46.0211 42.9395 45.6633 42.9395 45.2986C42.9395 44.9339 42.7911 44.5761 42.5318 44.3182C42.2738 44.0602 41.9174 43.9119 41.5514 43.9119Z" fill="#FFA7A7"/>
</g>
<defs>
<clipPath id="clip0">
<rect width="71" height="71" fill="white"/>
</clipPath>
</defs>
</svg>
