<svg width="120" height="68" viewBox="0 0 120 68" fill="none" xmlns="http://www.w3.org/2000/svg">
<path d="M119.245 48.7721C117.398 47.4901 115.613 46.225 113.888 45.0018C113.417 44.6682 112.951 44.3382 112.488 44.0101V31.6977H112.609C113.579 31.6977 114.366 30.9107 114.366 29.9399V22.4247C114.366 21.4539 113.579 20.6669 112.609 20.6669H93.6995V18.5371C93.7394 18.5399 93.7792 18.5463 93.819 18.5463C94.3675 18.5463 94.9079 18.2903 95.2508 17.8101C95.8152 17.02 95.6322 15.9222 94.8421 15.3581L81.6904 5.96389C81.0792 5.52749 80.2581 5.52749 79.6469 5.96389L72.5069 11.0639L71.1068 5.11288C70.92 4.31882 70.2114 3.75772 69.3956 3.75772C68.5797 3.75772 67.8715 4.31905 67.6844 5.11288L63.4226 23.2256L57.949 1.33148C57.7535 0.548905 57.0504 0 56.2437 0C55.437 0 54.7341 0.548905 54.5384 1.33148L49.8349 20.1459C47.0817 19.2344 44.2442 18.7879 41.2132 18.7879C39.5152 18.7879 37.9147 18.9232 36.3401 19.1992L30.9619 15.3576C30.3507 14.9212 29.5299 14.9212 28.9184 15.3576L15.7667 24.7518C14.9767 25.3162 14.7939 26.414 15.358 27.2038C15.726 27.719 16.3208 27.974 16.9096 27.9339V29.6528C15.6603 30.5758 14.4022 31.4919 13.1089 32.3987L12.8575 31.3923C12.662 30.6098 11.9589 30.0609 11.1521 30.0609C10.3454 30.0609 9.64254 30.6098 9.44684 31.3923L8.41723 35.511C6.15458 36.9198 3.71826 38.2977 0.986157 39.6336C0.11405 40.06 -0.247355 41.1128 0.178972 41.9849C0.483893 42.6086 1.10897 42.9711 1.75936 42.9711C2.01834 42.9711 2.28178 42.9137 2.53022 42.7921C4.1917 41.9797 5.74349 41.1547 7.21536 40.319L3.8106 53.9384C3.67912 54.4634 3.79724 55.0198 4.13029 55.4466C4.46334 55.8734 4.97451 56.1226 5.51591 56.1226H9.39457V59.8142C6.76513 61.2446 3.98193 62.66 1.01499 64.0447C0.135378 64.4551 -0.245011 65.5011 0.165378 66.3809C0.463737 67.0203 1.09772 67.3958 1.75936 67.3958C2.00826 67.3958 2.26115 67.3426 2.50162 67.2303C16.0827 60.8923 25.8423 53.9736 34.4529 47.8693C41.5294 42.8528 47.7258 38.4662 54.4861 35.5347V37.4549C54.4861 38.4257 55.2731 39.2127 56.2439 39.2127C57.2147 39.2127 58.0017 38.4257 58.0017 37.4549V33.5762H60.9872L60.1692 37.0522C60.0464 37.5749 60.169 38.1252 60.5023 38.5464C60.8358 38.9673 61.3432 39.2127 61.8801 39.2127H67.6376V46.8491C67.6376 47.8199 68.4246 48.6069 69.3954 48.6069C70.3661 48.6069 71.1532 47.8199 71.1532 46.8491V39.2127H76.9106C77.4475 39.2127 77.9552 38.9673 78.2885 38.5464C78.6217 38.1254 78.7446 37.5751 78.6215 37.0522L77.4032 31.8744C90.8922 33.0128 100.192 39.6025 111.854 47.8696C113.586 49.0979 115.378 50.368 117.239 51.6599C117.545 51.872 117.894 51.9737 118.24 51.9737C118.797 51.9737 119.344 51.71 119.686 51.2181C120.24 50.4212 120.042 49.3257 119.245 48.7721ZM11.1521 50.7278C10.1814 50.7278 9.39434 51.5148 9.39434 52.4856V52.6067H7.76708L11.1521 39.0665L14.5372 52.6067H12.91V52.4856C12.91 51.5148 12.1229 50.7278 11.1521 50.7278ZM12.91 57.8417V56.1223H15.8169C14.8693 56.6961 13.9004 57.2696 12.91 57.8417ZM16.9098 47.6014L14.0209 36.0456C15.0046 35.3713 15.9641 34.6921 16.9098 34.0089V47.6014ZM32.4195 45.0015C28.7087 47.6324 24.7813 50.4165 20.4252 53.2356V25.7446L29.9403 18.9482L39.3809 25.6914L39.4533 40.0893C37.1684 41.6357 34.8448 43.2822 32.4195 45.0015ZM42.9715 37.7809V27.9313C43.0114 27.9341 43.0512 27.9405 43.0911 27.9405C43.6395 27.9405 44.18 27.6845 44.5228 27.2043C45.0872 26.4142 44.9042 25.3164 44.1141 24.7523L40.6948 22.3099C40.8666 22.3061 41.0389 22.3035 41.2135 22.3035C43.9943 22.3035 46.4956 22.7088 48.9799 23.5668L47.0236 31.3926C46.8921 31.9176 47.0103 32.474 47.3433 32.9008C47.6764 33.3276 48.1875 33.5767 48.7289 33.5767H50.3569C47.8521 34.8172 45.4151 36.231 42.9715 37.7809ZM58.0017 30.0609V28.0609C58.0017 27.0902 57.2147 26.3031 56.2439 26.3031C55.2731 26.3031 54.4861 27.0902 54.4861 28.0609V30.0609H50.9801L56.2439 9.00513L61.4641 29.886C61.4789 29.9458 61.4969 30.0041 61.5176 30.0609H58.0017V30.0609ZM71.1534 35.6973V33.6974C71.1534 32.7266 70.3664 31.9396 69.3956 31.9396C68.4248 31.9396 67.6378 32.7266 67.6378 33.6974V35.6973H64.0999L69.3956 13.1899L74.6915 35.6973H71.1534ZM90.1837 31.0825C86.0313 29.5823 81.5847 28.6014 76.5602 28.2904L75.3848 23.2947C75.6876 23.8244 76.2569 24.1823 76.9108 24.1823C77.8816 24.1823 78.6686 23.3952 78.6686 22.4245V20.5457C78.6686 19.5749 77.8816 18.7879 76.9108 18.7879C75.94 18.7879 75.153 19.5749 75.153 20.5457V22.3096L73.3771 14.7623L80.6685 9.55427L90.1837 16.3509V31.0825V31.0825ZM110.851 28.1819H108.851C107.88 28.1819 107.093 28.9689 107.093 29.9397C107.093 30.9105 107.88 31.6975 108.851 31.6975H108.972V41.5419C103.807 37.9576 98.9293 34.8271 93.6995 32.4998V31.6977H101.336C102.307 31.6977 103.094 30.9107 103.094 29.9399C103.094 28.9691 102.307 28.1821 101.336 28.1821H93.6995V24.1825H110.851V28.1819V28.1819Z" fill="#FFA7A7"/>
<path d="M84.4268 18.7878C83.456 18.7878 82.6689 19.5749 82.6689 20.5456V22.4244C82.6689 23.3952 83.456 24.1822 84.4268 24.1822C85.3975 24.1822 86.1846 23.3952 86.1846 22.4244V20.5456C86.1846 19.5749 85.3975 18.7878 84.4268 18.7878Z" fill="#FFA7A7"/>
<path d="M26.1826 28.1819C25.2118 28.1819 24.4248 28.9689 24.4248 29.9397V31.8187C24.4248 32.7894 25.2118 33.5765 26.1826 33.5765C27.1534 33.5765 27.9404 32.7894 27.9404 31.8187V29.9397C27.9404 28.9689 27.1534 28.1819 26.1826 28.1819Z" fill="#FFA7A7"/>
<path d="M33.6982 28.1819C32.7275 28.1819 31.9404 28.9689 31.9404 29.9397V31.8187C31.9404 32.7894 32.7275 33.5765 33.6982 33.5765C34.669 33.5765 35.456 32.7894 35.456 31.8187V29.9397C35.456 28.9689 34.669 28.1819 33.6982 28.1819Z" fill="#FFA7A7"/>
<path d="M26.1826 37.5762C25.2118 37.5762 24.4248 38.3632 24.4248 39.334V41.213C24.4248 42.1837 25.2118 42.9708 26.1826 42.9708C27.1534 42.9708 27.9404 42.1837 27.9404 41.213V39.334C27.9404 38.3632 27.1534 37.5762 26.1826 37.5762Z" fill="#FFA7A7"/>
<path d="M33.6982 37.5762C32.7275 37.5762 31.9404 38.3632 31.9404 39.334V41.213C31.9404 42.1837 32.7275 42.9708 33.6982 42.9708C34.669 42.9708 35.456 42.1837 35.456 41.213V39.334C35.456 38.3632 34.669 37.5762 33.6982 37.5762Z" fill="#FFA7A7"/>
</svg>
