<svg width="59" height="71" viewBox="0 0 59 71" fill="none" xmlns="http://www.w3.org/2000/svg">
<path d="M52.0354 5.40833H41.4438C39.9127 3.94937 37.8431 3.05078 35.5662 3.05078H34.3515C33.4228 1.21227 31.5148 0 29.3982 0C27.2817 0 25.3739 1.21227 24.445 3.05078H23.2274C20.9505 3.05078 18.881 3.94937 17.3499 5.40833H6.76135C3.03316 5.40833 0 8.4415 0 12.1697V64.2387C0 67.9668 3.03316 71 6.76135 71H52.0353C55.7635 71 58.7966 67.9668 58.7966 64.2387V12.1697C58.7968 8.4415 55.7636 5.40833 52.0354 5.40833ZM23.2275 5.82421H25.3888C26.0126 5.82421 26.5595 5.40778 26.7255 4.80664C27.0562 3.60948 28.1553 2.77343 29.3984 2.77343C30.6414 2.77343 31.7405 3.60948 32.0711 4.80664C32.2371 5.40778 32.7842 5.82421 33.4078 5.82421H35.5662C38.5761 5.82421 41.0536 8.14696 41.3008 11.0939H17.4929C17.7401 8.14696 20.2178 5.82421 23.2275 5.82421ZM56.0233 64.2388C56.0233 66.4377 54.2343 68.2267 52.0354 68.2267H6.76135C4.56244 68.2267 2.77343 66.4377 2.77343 64.2388V12.1697C2.77343 9.97077 4.56244 8.18176 6.76135 8.18176H15.4071C14.9528 9.22346 14.6992 10.3719 14.6992 11.5792V12.4806C14.6992 13.2465 15.32 13.8673 16.0859 13.8673H42.7079C43.4738 13.8673 44.0947 13.2465 44.0947 12.4806V11.5792C44.0947 10.3721 43.841 9.22346 43.3867 8.18176H52.0354C54.2343 8.18176 56.0233 9.97077 56.0233 12.1697V64.2388Z" fill="#FFA7A7"/>
</svg>
