<svg width="71" height="71" viewBox="0 0 71 71" fill="none" xmlns="http://www.w3.org/2000/svg">
<path d="M54.359 6.65634C52.3415 6.6575 50.3464 7.08009 48.5016 7.89704C46.8415 6.10609 44.8294 4.6773 42.5914 3.7002C40.3534 2.7231 37.9377 2.21875 35.4957 2.21875C33.0537 2.21875 30.638 2.7231 28.3999 3.7002C26.1619 4.6773 24.1498 6.10609 22.4897 7.89704C20.6691 7.08957 18.7009 6.66794 16.7093 6.65871C14.7176 6.64948 12.7457 7.05285 10.9176 7.8434C9.08956 8.63396 7.44506 9.79456 6.08773 11.2521C4.73039 12.7096 3.68964 14.4325 3.03106 16.3121C2.37247 18.1917 2.11032 20.1874 2.26113 22.1733C2.41194 24.1593 2.97244 26.0925 3.9073 27.8511C4.84217 29.6097 6.13114 31.1557 7.69301 32.3915C9.25487 33.6274 11.0558 34.5264 12.9822 35.0318L16.6403 56.6714V67.672C16.6403 67.9662 16.7571 68.2484 16.9652 68.4564C17.1732 68.6645 17.4554 68.7813 17.7496 68.7813H53.2496C53.5439 68.7813 53.826 68.6645 54.0341 68.4564C54.2421 68.2484 54.359 67.9662 54.359 67.672V56.6714L58.017 35.0318C61.4079 34.1422 64.3587 32.0481 66.3178 29.141C68.277 26.2339 69.1103 22.7128 68.6621 19.236C68.2139 15.7591 66.5148 12.5645 63.8824 10.2493C61.2501 7.93416 57.8646 6.65691 54.359 6.65634V6.65634ZM52.1403 66.5626H18.859V57.6876H52.1403V66.5626ZM56.8233 33.0326C56.6042 33.0775 56.4038 33.1876 56.2483 33.3484C56.0929 33.5093 55.9897 33.7134 55.9523 33.9339L52.3121 55.4688H45.5661L46.5905 41.126H46.5894C46.5913 41.0998 46.5934 41.0737 46.5934 41.0471C46.5897 40.7622 46.4765 40.4897 46.2774 40.286C46.0782 40.0822 45.8083 39.9629 45.5236 39.9528C45.2389 39.9427 44.9612 40.0424 44.748 40.2315C44.5349 40.4205 44.4026 40.6843 44.3787 40.9682H44.3775L43.3417 55.4688H36.609V43.2657C36.609 42.9715 36.4921 42.6893 36.2841 42.4813C36.076 42.2732 35.7939 42.1563 35.4996 42.1563C35.2054 42.1563 34.9232 42.2732 34.7152 42.4813C34.5071 42.6893 34.3903 42.9715 34.3903 43.2657V55.4688H27.6576L26.6217 40.9679H26.6206C26.5967 40.684 26.4644 40.4202 26.2512 40.2312C26.0381 40.0422 25.7603 39.9424 25.4756 39.9525C25.1909 39.9627 24.921 40.082 24.7218 40.2858C24.5227 40.4895 24.4095 40.7621 24.4059 41.047C24.4059 41.0736 24.408 41.0997 24.4099 41.1259H24.4088L25.4332 55.4688H18.6872L15.0469 33.9343C15.0095 33.7138 14.9064 33.5097 14.7509 33.3489C14.5955 33.188 14.3951 33.0779 14.1759 33.033C11.9152 32.5671 9.83294 31.4697 8.17079 29.8681C6.50864 28.2665 5.33475 26.2264 4.78537 23.9845C4.23599 21.7426 4.33363 19.3909 5.06698 17.2023C5.80032 15.0137 7.13929 13.0779 8.92849 11.6196C10.7177 10.1613 12.8838 9.24029 15.1753 8.96346C17.4669 8.68663 19.79 9.06533 21.875 10.0556C23.96 11.0459 25.7214 12.6071 26.9548 14.5582C28.1882 16.5092 28.8431 18.77 28.8434 21.0782C28.8434 21.3724 28.9603 21.6546 29.1683 21.8627C29.3764 22.0707 29.6585 22.1876 29.9528 22.1876C30.247 22.1876 30.5292 22.0707 30.7372 21.8627C30.9453 21.6546 31.0621 21.3724 31.0621 21.0782C31.0612 18.6783 30.4613 16.3165 29.3169 14.207C28.1724 12.0975 26.5196 10.3069 24.5082 8.99768C26.4276 7.07464 28.8179 5.6887 31.4403 4.97818C34.0628 4.26767 36.8258 4.25744 39.4534 4.94852C42.0811 5.63961 44.4815 7.00782 46.4151 8.91659C48.3487 10.8254 49.7478 13.2079 50.4727 15.8264C50.5099 15.9686 50.5749 16.102 50.664 16.2189C50.7532 16.3357 50.8646 16.4337 50.992 16.5071C51.1193 16.5805 51.2599 16.6279 51.4057 16.6465C51.5515 16.6651 51.6995 16.6545 51.8412 16.6154C51.9829 16.5763 52.1154 16.5095 52.231 16.4188C52.3466 16.328 52.443 16.2152 52.5147 16.0869C52.5863 15.9586 52.6318 15.8173 52.6484 15.6713C52.665 15.5252 52.6524 15.3774 52.6113 15.2362C52.0614 13.2467 51.1658 11.3694 49.9655 9.6902C51.3665 9.14765 52.8565 8.87121 54.359 8.87509C57.3813 8.87528 60.296 9.99685 62.5388 12.0227C64.7816 14.0484 66.193 16.8344 66.4997 19.841C66.8064 22.8477 65.9867 25.8612 64.1991 28.2982C62.4115 30.7351 59.7833 32.4221 56.8233 33.0326V33.0326Z" fill="#FFA7A7"/>
</svg>
